HIERARCHY
ROOT Hips
{
	OFFSET	0.00	0.00	0.00
	CHANNELS 6 Xposition Yposition Zposition Zrotation Xrotation Yrotation
	JOINT LeftUpLeg
	{
		OFFSET	 0.126116	-0.014019	-0.065224
		CHANNELS 3 Zrotation Xrotation Yrotation
		JOINT LeftLeg
		{
			OFFSET	 0.000000	 0.000000	 0.569914
			CHANNELS 3 Zrotation Xrotation Yrotation
			JOINT LeftFoot
			{
				OFFSET	 0.000000	 0.000000	 0.544423
				CHANNELS 3 Zrotation Xrotation Yrotation
				JOINT LeftToeBase
				{
					OFFSET	 0.000000	 0.000000	 0.207117
					CHANNELS 3 Zrotation Xrotation Yrotation
					End Site
					{
						OFFSET	 0.000000	 0.000000	 0.207117
					}
				}
			}
		}
	}
	JOINT RightUpLeg
	{
		OFFSET	-0.124023	-0.008373	-0.065224
		CHANNELS 3 Zrotation Xrotation Yrotation
		JOINT RightLeg
		{
			OFFSET	 0.000000	 0.000000	 0.570047
			CHANNELS 3 Zrotation Xrotation Yrotation
			JOINT RightFoot
			{
				OFFSET	 0.000000	 0.000000	 0.544354
				CHANNELS 3 Zrotation Xrotation Yrotation
				JOINT RightToeBase
				{
					OFFSET	 0.000000	 0.000000	 0.207540
					CHANNELS 3 Zrotation Xrotation Yrotation
					End Site
					{
						OFFSET	 0.000000	 0.000000	 0.207540
					}
				}
			}
		}
	}
	JOINT Spine
	{
		OFFSET	 0.000184	-0.007763	 0.117403
		CHANNELS 3 Zrotation Xrotation Yrotation
		JOINT Spine1
		{
			OFFSET	 0.000000	 0.000000	 0.137269
			CHANNELS 3 Zrotation Xrotation Yrotation
			JOINT Spine2
			{
				OFFSET	 0.000000	 0.000000	 0.156879
				CHANNELS 3 Zrotation Xrotation Yrotation
				JOINT LeftShoulder
				{
					OFFSET	 0.080501	-0.002496	 0.160144
					CHANNELS 3 Zrotation Xrotation Yrotation
					JOINT LeftArm
					{
						OFFSET	 0.000000	 0.000000	 0.164363
						CHANNELS 3 Zrotation Xrotation Yrotation
						JOINT LeftForeArm
						{
							OFFSET	 0.000000	 0.000000	 0.364576
							CHANNELS 3 Zrotation Xrotation Yrotation
							JOINT LeftHand
							{
								OFFSET	 0.000000	 0.000000	 0.360812
								CHANNELS 3 Zrotation Xrotation Yrotation
								JOINT LeftHandIndex1
								{
									OFFSET	 0.000000	 0.000000	 0.086006
									CHANNELS 3 Zrotation Xrotation Yrotation
									JOINT LeftHandIndex2
									{
										OFFSET	 0.000000	 0.000000	 0.047236
										CHANNELS 3 Zrotation Xrotation Yrotation
										JOINT LeftHandIndex3
										{
											OFFSET	-0.004284	-0.000551	 0.038166
											CHANNELS 3 Zrotation Xrotation Yrotation
											End Site
											{
												OFFSET	-0.004284	-0.000551	 0.038166
											}
										}
									}
								}
							}
						}
					}
				}
				JOINT Neck
				{
					OFFSET	 0.000000	 0.000000	 0.176489
					CHANNELS 3 Zrotation Xrotation Yrotation
					JOINT Head
					{
						OFFSET	 0.000000	-0.001747	 0.077940
						CHANNELS 3 Zrotation Xrotation Yrotation
						End Site
						{
							OFFSET	 0.000000	-0.001747	 0.077940
						}
					}
				}
				JOINT RightShoulder
				{
					OFFSET	-0.080363	 0.000306	 0.159706
					CHANNELS 3 Zrotation Xrotation Yrotation
					JOINT RightArm
					{
						OFFSET	 0.000000	 0.000000	 0.164196
						CHANNELS 3 Zrotation Xrotation Yrotation
						JOINT RightForeArm
						{
							OFFSET	 0.000000	 0.000000	 0.365611
							CHANNELS 3 Zrotation Xrotation Yrotation
							JOINT RightHand
							{
								OFFSET	 0.000000	 0.000000	 0.360648
								CHANNELS 3 Zrotation Xrotation Yrotation
								JOINT RightHandIndex1
								{
									OFFSET	 0.000000	 0.000000	 0.069977
									CHANNELS 3 Zrotation Xrotation Yrotation
									JOINT RightHandIndex2
									{
										OFFSET	 0.000000	 0.000000	 0.052305
										CHANNELS 3 Zrotation Xrotation Yrotation
										JOINT RightHandIndex3
										{
											OFFSET	 0.009002	-0.000782	 0.042196
											CHANNELS 3 Zrotation Xrotation Yrotation
											End Site
											{
												OFFSET	 0.009002	-0.000782	 0.042196
											}
										}
									}
								}
							}
						}
					}
				}
			}
		}
	}
}
MOTION
Frames:    5
Frame Time: 0.03333334
 0.014366	 0.067154	 1.202797	 4.156794	-1.530249	-2.746980	 0.329854	-12.422240	-171.007500	 0.429512	-38.509360	 0.030125	 50.939380	 79.778660	-54.950120	-2.371043	 31.337730	-0.063655	-3.416206	-28.794710	-176.707600	 10.422050	-53.075370	 8.927616	 11.282570	 72.414720	-6.368298	 2.358008	 33.141140	 0.106500	-5.900324	 8.806634	 2.200934	-2.053112	 2.015466	-1.546209	 3.376351	-1.803377	 1.629442	-93.798840	 58.863510	 175.697900	 25.619610	 46.192260	-20.610870	-1.224273	-3.062888	-26.488220	-1.385305	-23.921650	-6.676730	-4.870810	 19.210500	-2.785535	-3.885444	 21.422670	 2.206736	-4.807824	 5.550660	 0.146667	-0.118174	-5.024671	 0.162589	 1.115279	 2.058753	 2.888230	 89.823900	 61.592090	-179.900600	-20.950080	 53.075810	 13.503420	-1.358494	-1.899083	 9.886909	-4.804738	-9.911425	 0.753700	 6.302552	 25.799800	-0.571397	 1.755250	 45.732110	-6.876676	 0.381906	 24.905880	 3.642085
 0.013324	 0.055018	 1.203157	 5.718429	-0.460372	-2.762757	-1.021265	-13.057970	-171.097400	 1.270666	-38.316940	 0.569168	 48.098040	 79.565320	-52.716570	-2.368395	 31.780030	-0.073672	-7.318006	-31.237900	-176.925400	 12.326040	-51.806240	 10.351440	 60.542000	 83.871130	-58.143450	 2.359026	 32.992850	 0.103055	-6.841558	 8.110539	 1.840824	-1.951167	 1.405091	-1.254954	 3.079114	-2.159441	 1.541795	-94.126620	 58.983750	 174.984400	 27.505220	 45.049300	-21.111330	-2.278345	-2.784106	-28.718730	-1.368729	-25.557350	-8.987709	-4.864302	 19.392850	-2.800789	-3.868998	 21.632770	 2.190021	-4.804092	 5.594667	 0.144089	-0.035705	-5.107337	 0.235959	 1.080938	 1.722054	 2.616111	 89.708740	 61.771590	 179.824300	-19.785990	 53.894230	 11.384330	-2.262824	-2.114980	 10.180360	-4.975366	-10.128330	 0.321920	 6.275382	 23.486270	-0.552546	 2.049543	 43.339340	-7.138773	 0.813202	 23.003290	 3.425451
 0.012851	 0.035092	 1.203102	 6.429478	 0.579770	-3.181601	-1.510478	-12.864750	-170.825500	 1.580749	-37.617230	 0.749635	 47.048760	 79.512570	-51.872100	-2.365353	 32.269860	-0.084843	-8.565584	-34.022350	-176.616200	 13.529000	-49.382910	 10.940450	 113.542700	 80.871160	-113.558300	 2.361552	 32.614300	 0.094293	-7.115562	 7.195795	 1.842163	-1.868367	 1.441852	-0.850849	 2.827657	-2.586315	 1.351722	-94.380360	 58.984490	 174.443600	 28.275170	 43.585330	-21.585340	-3.231484	-2.526994	-31.515000	-1.381543	-27.787710	-8.790746	-4.845095	 19.835020	-2.820240	-3.847332	 21.907880	 2.168002	-4.793069	 5.724411	 0.136481	-0.003917	-5.188380	 0.319038	 0.920377	 1.486570	 2.559228	 89.547690	 61.971140	 179.434600	-18.711210	 54.664510	 9.241172	-3.735018	-2.490186	 10.587560	-5.882395	-10.586210	-0.746911	 6.236137	 21.138790	-0.625057	 2.269550	 41.396550	-7.332220	 1.337802	 20.603190	 3.178245
 0.011938	-0.002498	 1.202263	 6.700371	 1.007277	-3.673080	-1.814270	-10.663630	-170.600200	 1.792917	-36.175750	 0.850214	 43.784610	 79.211070	-48.688970	-2.350344	 34.428970	-0.135215	-6.642889	-36.178740	-175.514100	 12.775510	-44.028330	 9.496910	 132.893000	 72.675220	-134.348600	 2.345006	 34.904650	 0.148223	-7.411698	 6.539181	 2.047531	-1.755688	 2.495620	-0.446882	 2.648840	-3.448249	 1.147708	-94.508620	 58.934960	 174.178400	 27.231820	 41.722690	-22.320220	-3.973105	-2.333953	-34.656880	-2.149965	-30.282210	-8.529430	-4.831373	 20.360950	-2.897348	-3.809784	 22.379770	 2.129873	-4.751942	 6.206593	 0.107963	 0.057470	-5.331341	 0.349595	 0.792994	 1.197733	 2.382334	 89.403010	 62.023930	 179.083800	-16.841400	 55.439000	 5.841526	-5.776278	-2.991470	 10.926730	-6.998533	-12.122100	-2.895433	 6.179482	 17.832090	-0.711232	 2.686675	 37.302810	-7.692035	 2.025360	 17.319130	 2.883230
 0.008807	-0.054156	 1.199621	 7.082866	 0.982722	-3.607968	-2.666984	-7.152699	-171.109200	 2.371366	-34.476610	 1.143018	 33.401760	 77.346790	-38.513370	-2.296331	 40.152570	-0.279721	-5.663376	-36.625200	-175.064900	 11.433060	-34.720720	 7.015156	 103.132800	 76.784210	-104.901300	 2.338104	 35.749560	 0.168716	-8.156113	 6.456700	 1.919048	-1.622744	 3.571895	-0.210041	 2.442574	-4.460148	 0.963241	-94.525050	 59.153060	 174.107100	 24.893230	 40.121160	-23.939430	-4.086205	-2.394400	-36.275020	-3.802616	-34.170020	-9.852356	-4.871709	 20.582960	-3.197576	-3.769229	 22.883090	 2.088692	-4.686174	 6.970717	 0.061994	 0.166796	-5.468006	 0.291321	 0.769361	 1.045220	 2.041895	 89.356390	 61.715260	 178.982700	-14.866970	 55.776940	 1.758416	-7.459983	-3.353481	 10.957860	-7.789594	-14.978730	-4.764799	 6.181914	 14.471530	-0.484241	 2.991411	 33.927530	-7.947994	 2.692100	 13.993470	 2.630864
